# xmcd
#
# Track frame offsets:
#	150
#	12365
#	22037
#	35145
#	47715
#	59808
#	100561
#	110104
#	123927
#	138140
#
# Disc length: 2007 seconds
#
# Revision: 1
# Processed by: cddbd v1.5.2PL0 Copyright (c) Steve Scherf et al.
# Submitted via: audiograbber 1.83.01
#
DISCID=8a07d50a
DTITLE=Various Artist - Mastercuts Funk Divas CD02
DYEAR=2005
DGENRE=Funk
TTITLE0=June Conquest - Take Care
TTITLE1=Zilla Mayes - All I Want Is You
TTITLE2=Bette Davis - Hanging' Out In Hollywood
TTITLE3=Liz Lands - One Man's Poison
TTITLE4=June Conquest - All I Need
TTITLE5=Bobbi Humprey - Baby Don't You Know
TTITLE6=Betty Harris - All I Want Is You
TTITLE7=Ann Sexton - You're Gonna Miss Me
TTITLE8=Betti Harris - Ride Your Pony
TTITLE9=Jody Gayles - You Gotta Push
EXTD=
EXTT0=
EXTT1=
EXTT2=
EXTT3=
EXTT4=
EXTT5=
EXTT6=
EXTT7=
EXTT8=
EXTT9=
PLAYORDER=
